<svg width="35" height="40" viewBox="0 0 35 40" fill="none" xmlns="http://www.w3.org/2000/svg">
<path d="M34.3469 19.7792C34.3469 22.7192 34.3075 25.6671 34.3705 28.6071C34.3863 29.463 34.0714 29.8671 33.3708 30.2713C28.4824 33.0845 23.5862 35.8977 18.7608 38.8298C17.6036 39.5351 16.8086 39.543 15.6436 38.8298C11.2118 36.1355 6.76422 33.4649 2.18284 31.0558C0.403824 30.1049 -0.0369953 29.0271 0.00236356 27.1411C0.128312 21.6731 0.057466 16.1894 0.0338507 10.7214C0.0338507 10.0558 0.246388 9.72293 0.844643 9.3584C4.70181 6.97311 8.75577 4.91273 12.5657 2.44027C13.8331 1.61611 15.2264 0.990075 16.5252 0.213469C17.0369 -0.0955883 17.4462 -0.048041 17.9106 0.221394C23.1454 3.26442 28.3722 6.30745 33.6148 9.3267C34.1344 9.62783 34.3626 9.95274 34.3548 10.5709C34.3233 13.6377 34.339 16.7124 34.339 19.7792H34.3469ZM27.0813 19.7079C27.0813 18.0279 27.0813 16.3558 27.0813 14.6758C27.0813 14.335 27.1285 14.0022 26.7349 13.7724C23.7043 12.0448 20.6815 10.3093 17.6587 8.56594C17.3124 8.36783 17.0369 8.38368 16.7063 8.58179C13.8252 10.2776 10.952 11.9814 8.03944 13.6218C7.47267 13.9388 7.33098 14.2954 7.33885 14.8739C7.3546 17.592 7.45693 20.326 7.30737 23.0362C7.21291 24.7954 7.50416 26.095 9.3619 26.6101C9.55869 26.6656 9.724 26.8479 9.91292 26.9588C12.1879 28.2664 14.4707 29.5581 16.7378 30.8815C17.0999 31.0954 17.3203 31.1271 17.7139 30.8815C20.6264 29.146 23.5626 27.4501 26.5066 25.7622C26.9868 25.4849 27.1127 25.1441 27.097 24.629C27.0655 22.9807 27.0891 21.3403 27.0891 19.692L27.0813 19.7079Z" fill="white"/>
</svg>
