<svg width="26" height="26" viewBox="0 0 26 26" fill="none" xmlns="http://www.w3.org/2000/svg">
<g clip-path="url(#clip0_2194_79420)">
<mask id="mask0_2194_79420" style="mask-type:luminance" maskUnits="userSpaceOnUse" x="0" y="0" width="26" height="26">
<rect y="0.398438" width="25.6" height="25.6" fill="#7BDDA9"/>
</mask>
<g mask="url(#mask0_2194_79420)">
<path fill-rule="evenodd" clip-rule="evenodd" d="M20.1496 2.53125C21.3902 2.53125 22.3992 3.56165 22.3992 4.83845V24.9312L20.0408 22.8033L18.7128 21.5488L17.308 20.2155L17.8904 22.288H5.44882C4.20829 22.288 3.19922 21.2577 3.19922 19.9809V4.83845C3.19922 3.56165 4.20829 2.53125 5.44882 2.53125H20.1496ZM11.8936 13.1979C11.9054 12.6113 11.387 12.1313 10.747 12.1313C10.1059 12.1313 9.59922 12.6113 9.59922 13.1979C9.59922 13.7846 10.1176 14.2646 10.747 14.2646C11.388 14.2646 11.8936 13.7846 11.8936 13.1979ZM15.9992 13.1979C15.9992 12.6113 15.4926 12.1313 14.8515 12.1313C14.2104 12.1313 13.7048 12.6113 13.7048 13.1979C13.7048 13.7846 14.2222 14.2646 14.8515 14.2646C15.4926 14.2646 15.9992 13.7846 15.9992 13.1979ZM15.916 17.1584C15.9156 17.1584 15.9153 17.1584 15.915 17.1585L15.916 17.1585C15.916 17.1585 15.916 17.1584 15.916 17.1584ZM19.2728 15.4561C19.2728 15.4561 18.3398 17.0801 15.916 17.1584C15.9122 17.1538 15.5187 16.6753 15.1907 16.2518C16.6286 15.8369 17.1768 14.9185 17.1768 14.9185C16.7267 15.2203 16.299 15.4337 15.915 15.5798C15.4054 15.8017 14.8717 15.9632 14.3246 16.0609C13.3853 16.2377 12.4209 16.234 11.483 16.0502C10.8568 15.9265 10.3192 15.7473 9.86908 15.5681C9.61735 15.4667 9.34322 15.3441 9.06909 15.1873C9.05327 15.1765 9.03746 15.1685 9.02164 15.1605C9.00439 15.1517 8.98714 15.143 8.96988 15.1307C8.9492 15.1209 8.93852 15.1101 8.9286 15.1001C8.92778 15.0993 8.92697 15.0985 8.92615 15.0977C8.72882 14.9857 8.62002 14.9067 8.62002 14.9067C8.62002 14.9067 9.14588 15.8027 10.54 16.2294C10.2094 16.655 9.80402 17.1585 9.80402 17.1585C7.37948 17.0795 6.45789 15.4561 6.45789 15.4561C6.45789 11.8497 8.03762 8.92698 8.03762 8.92698C9.61735 7.71738 11.1203 7.75045 11.1203 7.75045L11.2302 7.88485C9.25575 8.46725 8.34482 9.35258 8.34482 9.35258C8.34482 9.35258 8.58695 9.21712 8.99228 9.02725C10.1656 8.50032 11.099 8.35525 11.483 8.32112C11.4938 8.31934 11.5044 8.31754 11.5147 8.31576C11.5668 8.30687 11.6145 8.29872 11.6696 8.29872C12.4045 8.20135 13.1485 8.19419 13.8851 8.27738C15.0463 8.41321 16.1689 8.7787 17.1875 9.35258C17.1875 9.35258 16.3214 8.51205 14.4557 7.92965L14.6094 7.75045C14.6094 7.75045 16.1134 7.71738 17.692 8.92592C17.692 8.92592 19.2728 11.8497 19.2728 15.4561Z" fill="#7BDDA9"/>
</g>
</g>
<defs>
<clipPath id="clip0_2194_79420">
<rect width="25.6" height="25.6" fill="#7BDDA9" transform="translate(0 0.398438)"/>
</clipPath>
</defs>
</svg>
