<svg width="23" height="16" viewBox="0 0 23 16" fill="none" xmlns="http://www.w3.org/2000/svg">
<g clip-path="url(#clip0_2194_79432)">
<path d="M0.400391 8.12502C0.472345 7.03971 0.813069 6.24091 1.87968 5.74989C5.18323 4.23328 8.4582 2.661 11.7321 1.0877C12.5035 0.717153 13.1998 0.698929 13.9892 1.0715C16.2621 2.14669 18.5635 3.16721 20.8513 4.21405C21.1306 4.34161 21.4734 4.43476 21.4671 4.82251C21.4618 5.18091 21.1444 5.27203 20.8819 5.40162C17.5498 7.04983 14.2114 8.68793 10.8898 10.3554C10.2719 10.6652 9.78407 10.7016 9.13436 10.3554C7.0879 9.26602 4.99382 8.25967 2.91244 7.23106C2.18549 6.87165 1.79186 7.06806 1.62679 7.83446C1.40669 8.85396 1.91884 9.9008 2.88069 10.3858C4.61077 11.2585 6.34508 12.1221 8.06986 13.0029C8.33123 13.1365 8.46879 13.1436 8.67195 12.8976C9.4317 11.9833 10.7025 11.9074 11.602 12.7103C11.7946 12.8814 11.9152 12.9441 12.1765 12.8095C14.0844 11.8274 16.0018 10.8626 17.9234 9.90485C18.2397 9.74692 18.3646 9.591 18.3202 9.21135C18.2038 8.21715 19.0746 7.28168 20.1582 7.15411C21.1137 7.04173 22.2332 7.81725 22.3813 8.7345C22.4882 9.39257 22.1814 9.9251 21.6607 10.3291C21.0364 10.814 20.3127 10.9375 19.5783 10.6267C19.227 10.4779 18.9889 10.4971 18.6619 10.6692C16.7023 11.7009 14.7309 12.7103 12.7564 13.7146C12.4876 13.8513 12.3268 14.0041 12.2623 14.3058C12.0781 15.1603 11.3681 15.7141 10.4264 15.7911C9.61688 15.8569 8.78517 15.3598 8.49312 14.5691C8.37567 14.2512 8.18943 14.075 7.88998 13.9282C6.06996 13.0393 4.27216 12.1089 2.43945 11.2453C1.02893 10.5852 0.524194 9.44927 0.400391 8.12502ZM9.61265 14.0072C9.6391 14.3524 9.85073 14.5741 10.1989 14.5924C10.5533 14.6116 10.8105 14.4 10.8285 14.0537C10.8475 13.6852 10.6115 13.4463 10.2264 13.4372C9.86131 13.4281 9.66449 13.6549 9.6137 14.0062L9.61265 14.0072ZM20.9232 9.05847C20.8809 8.70716 20.6724 8.50164 20.3402 8.50772C19.9592 8.5148 19.7127 8.76386 19.7201 9.12225C19.7264 9.43205 19.9444 9.66086 20.2989 9.65074C20.6894 9.6396 20.8872 9.40674 20.9232 9.05948V9.05847Z" fill="#7BDDA9"/>
</g>
<defs>
<clipPath id="clip0_2194_79432">
<rect width="22" height="15" fill="#7BDDA9" transform="translate(0.400391 0.800781)"/>
</clipPath>
</defs>
</svg>
