<svg width="22" height="13" viewBox="0 0 22 13" fill="none" xmlns="http://www.w3.org/2000/svg">
<g clip-path="url(#clip0_2194_79434)">
<path d="M6.37878 12.8009C3.07392 12.7993 0.396536 10.1063 0.400395 6.7877C0.404254 3.4753 3.10402 0.782272 6.40348 0.800877C9.71761 0.819482 12.3726 3.50708 12.3618 6.83188C12.351 10.1249 9.66667 12.8032 6.37878 12.8017V12.8009Z" fill="#7BDDA9"/>
<path d="M12.9902 6.77227C13.072 5.30328 13.2611 3.87692 13.9851 2.58235C14.195 2.20715 14.4767 1.84901 14.7986 1.56762C15.4145 1.02886 16.204 1.03351 16.779 1.62266C17.1742 2.02731 17.54 2.51878 17.7484 3.04049C18.7386 5.518 18.7301 8.02498 17.7484 10.5041C17.5593 10.9823 17.2367 11.4335 16.8863 11.8141C16.2071 12.5513 15.3288 12.5281 14.6141 11.8157C13.8539 11.0575 13.5058 10.0862 13.302 9.06684C13.1508 8.31103 13.0913 7.53738 12.9902 6.77227Z" fill="#7BDDA9"/>
<path d="M19.2012 6.41947C19.3393 5.38846 19.5083 4.0497 19.7075 2.71637C19.7461 2.45745 19.8742 2.20009 20.01 1.97141C20.2068 1.6404 20.4924 1.6342 20.6491 1.98614C20.8505 2.43885 21.0226 2.92102 21.1052 3.40784C21.5158 5.81792 21.5127 8.22877 21.0033 10.628C20.9424 10.914 20.8366 11.1978 20.7023 11.4575C20.629 11.6001 20.4523 11.7815 20.3257 11.7784C20.1945 11.7753 19.9992 11.5939 19.9514 11.4505C19.7654 10.8916 19.5624 10.3264 19.4852 9.7466C19.3524 8.75203 19.3085 7.74505 19.2012 6.41947Z" fill="#7BDDA9"/>
</g>
<defs>
<clipPath id="clip0_2194_79434">
<rect width="21" height="12" fill="#7BDDA9" transform="translate(0.400391 0.800781)"/>
</clipPath>
</defs>
</svg>
