<svg width="85" height="24" viewBox="0 0 85 24" fill="none" xmlns="http://www.w3.org/2000/svg">
<path fill-rule="evenodd" clip-rule="evenodd" d="M83.0639 10.6655L84.7466 14.9827L84.7329 14.976C84.7398 15.0027 84.7603 15.0293 84.7945 15.0293V15.0893C84.4479 15.1204 84.1013 15.116 83.7547 15.1115L83.7546 15.1115C83.5814 15.1093 83.4081 15.1071 83.2349 15.1093H82.2156C81.9215 15.1093 81.9215 15.1093 81.812 14.8361C81.535 14.1266 81.2563 13.4171 80.9775 12.7075C80.6988 11.998 80.42 11.2884 80.143 10.5789C80.0512 10.3453 79.9581 10.1123 79.8651 9.87949L79.8651 9.87943L79.8651 9.87937L79.8651 9.8793L79.865 9.87907L79.8649 9.87883L79.8647 9.87842L79.8646 9.87801L79.8644 9.8776L79.8642 9.87701L79.8639 9.87625L79.8635 9.87532L79.8631 9.8742C79.6519 9.3454 79.4412 8.81782 79.2469 8.28705C79.0895 7.86733 78.6996 7.59417 78.255 7.59417C77.8035 7.59417 77.4478 7.84734 77.27 8.30038C76.8458 9.37638 76.4234 10.4524 76.001 11.5284C75.5786 12.6043 75.1563 13.6802 74.7322 14.7562C74.7185 14.7962 74.7031 14.8345 74.6877 14.8728L74.6875 14.8732C74.6722 14.9113 74.6569 14.9495 74.6432 14.9894C74.6159 15.0826 74.5475 15.116 74.4517 15.116C73.5693 15.1093 72.6869 15.1093 71.8044 15.1093C71.7908 15.1093 71.7702 15.096 71.7497 15.0826C71.7447 15.0047 71.7763 14.9339 71.807 14.865C71.8183 14.8397 71.8294 14.8146 71.8386 14.7895C72.2193 13.8215 72.5992 12.8528 72.9791 11.8841C73.7393 9.94581 74.4995 8.00752 75.2657 6.07516C75.4299 5.66875 75.382 5.3423 75.1221 4.98253C74.2826 3.82421 73.4558 2.66176 72.6283 1.49843L72.628 1.49789L72.6276 1.49735L72.6274 1.49719L72.6273 1.49704L72.6272 1.49689C72.4033 1.182 72.1793 0.867035 71.9549 0.552075C71.9399 0.531594 71.9239 0.511113 71.9077 0.490421L71.9066 0.488948L71.9063 0.488668C71.8492 0.415665 71.7899 0.339958 71.7634 0.25227C71.8167 0.200371 71.8658 0.205072 71.914 0.209685C71.9277 0.210994 71.9413 0.212295 71.9549 0.212295C72.2192 0.212295 72.4842 0.213773 72.7494 0.215252C73.2807 0.218214 73.813 0.221183 74.3423 0.212295C74.5338 0.205633 74.6432 0.272257 74.7527 0.425491C75.6065 1.62966 76.4672 2.83382 77.3278 4.03799L77.3279 4.03808L77.328 4.03817L77.328 4.03826L77.3281 4.03835L77.3282 4.03844L77.3282 4.03853L77.3283 4.03862L77.3284 4.03871L77.3284 4.0388L77.3285 4.03889L77.3286 4.03898L77.3286 4.03907L77.3316 4.04314C77.368 4.09423 77.406 4.14457 77.4441 4.19492C77.5201 4.29558 77.596 4.39625 77.6599 4.50284C77.9267 4.94922 78.5628 4.94922 78.8775 4.50284C79.4155 3.73543 79.9613 2.97313 80.5069 2.21119L80.507 2.21114L80.507 2.21106L80.5071 2.21094L80.5073 2.21076L80.5075 2.21047L80.5076 2.21023L80.5078 2.21004L80.508 2.20979C80.8431 1.74184 81.1781 1.27402 81.5111 0.805244C81.5475 0.754204 81.5847 0.703163 81.622 0.652123C81.6965 0.54993 81.771 0.447736 81.8394 0.345543C81.9078 0.25227 81.9831 0.212295 82.1062 0.212295H84.7193C84.7514 0.32699 84.6913 0.396809 84.6342 0.463253L84.6342 0.46331L84.6341 0.463343L84.6341 0.463362V0.463373C84.6183 0.481799 84.6027 0.499967 84.5893 0.518763C84.1652 1.11171 83.7411 1.70633 83.317 2.30094C82.8929 2.89556 82.4687 3.49017 82.0446 4.08312L81.9384 4.2373C81.7493 4.51207 81.5612 4.78534 81.3537 5.04916C81.1075 5.36229 81.0938 5.67542 81.2375 6.03518C81.6707 7.11824 82.0972 8.20459 82.524 9.29193L82.5249 9.29416C82.7043 9.75117 82.8838 10.2083 83.0639 10.6655ZM80.1418 20.2923C80.1418 20.0101 80.3322 19.8161 80.6178 19.7926L80.6118 19.775H80.8915H84.7945V20.7625C84.7588 20.7566 84.7231 20.7507 84.6874 20.7507H81.4269C81.4109 20.7507 81.3954 20.7501 81.3802 20.7494C81.3505 20.7481 81.3216 20.7469 81.2901 20.7507C81.1652 20.7625 81.1294 20.8507 81.1294 20.9624C81.1294 21.074 81.1889 21.1328 81.296 21.1446H81.5162C81.8077 21.1446 82.0993 21.1465 82.3908 21.1485C82.9739 21.1524 83.557 21.1563 84.14 21.1446C84.4494 21.1387 84.6696 21.2327 84.7945 21.5208V23.1666C84.6339 23.4253 84.4018 23.5017 84.0984 23.5017C83.2939 23.4978 82.4867 23.4991 81.6805 23.5004H81.6802H81.68H81.6798H81.6795H81.6793H81.6791H81.6788H81.6786H81.6784H81.6782H81.6779H81.6777H81.677H81.6764H81.6757C81.2731 23.501 80.8707 23.5017 80.469 23.5017H80.3024C80.1894 23.5076 80.1358 23.4664 80.1358 23.343V22.6611C80.1358 22.5671 80.1834 22.5259 80.2727 22.5259H80.469H83.4082H83.6045C83.7652 22.5142 83.8187 22.4671 83.8187 22.3378C83.8247 22.2026 83.7652 22.1438 83.5926 22.1321H83.3963H80.8201H80.5999C80.3917 22.1203 80.1239 21.8852 80.1358 21.6325C80.1486 21.3135 80.1462 20.9945 80.1437 20.6756V20.6751C80.1428 20.5475 80.1418 20.4199 80.1418 20.2923ZM12.8086 14.5164C12.9912 14.2633 13.0453 13.9702 13.0453 13.6637V7.82828V6.18289C13.0318 5.53673 12.599 5.00381 11.9566 4.87724C11.8234 4.84871 11.6902 4.8495 11.5528 4.85032L11.4832 4.85059H3.69996C3.58501 4.85059 3.47005 4.85059 3.35509 4.83727C2.98993 4.77732 2.7803 4.5375 2.76678 4.18444C2.76678 4.11098 2.76602 4.03826 2.76527 3.96579V3.96577V3.96575V3.96574V3.96572V3.9657V3.96569V3.96567V3.96566V3.96564V3.96562V3.96561V3.9656V3.96559V3.96558V3.96557V3.96556V3.96555V3.96554V3.96553V3.96552V3.96551V3.9655C2.76377 3.8212 2.76228 3.67789 2.76678 3.53162C2.78706 3.19188 2.98993 2.97871 3.32128 2.9121C3.43398 2.88989 3.54669 2.89082 3.65939 2.89174C3.68193 2.89193 3.70447 2.89211 3.72701 2.89211H12.6125H12.8627C12.9777 2.89211 13.0318 2.85881 13.0318 2.73224V0.37407C13.0318 0.260824 12.9912 0.200871 12.8695 0.207533H12.714H1.43463C0.609644 0.207533 0.0145705 0.77376 0.0078083 1.5798C-0.00571607 3.11194 0.00104611 4.64409 0.0078083 6.16957C0.0078083 6.60257 0.183624 6.97561 0.535258 7.24873C0.812508 7.4619 1.12357 7.53517 1.4752 7.53517H9.35315C10.0767 7.53517 10.3066 7.74834 10.3066 8.45446V11.4988C10.3066 12.2049 10.0226 12.4447 9.33286 12.438C7.61076 12.4292 5.88865 12.4321 4.16655 12.4351C3.3055 12.4366 2.44445 12.438 1.58339 12.438H0.291819C0.151305 12.438 0.0803103 12.438 0.04444 12.4735C0.00780799 12.5098 0.0078083 12.583 0.0078083 12.7311V14.8428V14.8428C0.0078083 14.9798 0.0078083 15.0481 0.0419463 15.0821C0.0758652 15.116 0.143485 15.116 0.278292 15.116H0.467637H5.98558H11.6591C12.1527 15.116 12.5314 14.9161 12.8086 14.5297V14.5164ZM55.3313 4.86607C55.6107 4.86607 55.8833 4.89269 56.1286 5.03246L56.1218 5.03912C56.5919 5.30535 56.8372 5.71134 56.8372 6.23715V9.30543C56.8372 9.38465 56.838 9.46314 56.8388 9.54138V9.54183V9.54227V9.5427V9.54314V9.5436V9.54404C56.8403 9.70156 56.8418 9.8581 56.8372 10.0176C56.81 10.7763 56.258 11.3088 55.4812 11.3421H55.161H47.3792C47.2497 11.3421 47.1203 11.3421 46.9976 11.362C46.7182 11.4086 46.5547 11.6016 46.5411 11.8745C46.5274 12.1474 46.6773 12.3537 46.9567 12.4203C47.0794 12.4469 47.2089 12.4469 47.3383 12.4469H52.3535C52.3951 12.4469 52.4319 12.4464 52.4643 12.4459C52.5846 12.4442 52.6461 12.4433 52.6772 12.4736C52.7099 12.5052 52.7093 12.571 52.7083 12.7056C52.7081 12.732 52.7079 12.761 52.7079 12.793V14.8363L52.7079 14.8714C52.7082 14.9913 52.7083 15.0525 52.6777 15.0837C52.6459 15.1163 52.5806 15.1162 52.4472 15.1159L52.408 15.1159H45.9959H45.1101C44.3946 15.1026 43.829 14.5634 43.795 13.8646V13.4586V6.29705C43.795 5.95095 43.8699 5.63813 44.0948 5.3719C44.3946 5.02581 44.7762 4.86607 45.2396 4.86607H50.3161H55.3313ZM53.4063 8.64734C53.4779 8.64859 53.5494 8.64984 53.621 8.63986L53.6142 8.6332C53.8799 8.59327 54.0639 8.38694 54.0843 8.12071C54.0979 7.88111 53.948 7.66812 53.6891 7.58825C53.5665 7.54832 53.4438 7.54832 53.3143 7.54832H47.277C47.1952 7.54832 47.1066 7.54832 47.0249 7.56163C46.7319 7.60822 46.5547 7.80789 46.5479 8.09409C46.5411 8.37363 46.7114 8.57996 47.0112 8.6332C47.1066 8.64651 47.202 8.64651 47.2974 8.64651H50.3161H53.3348C53.3586 8.64651 53.3825 8.64693 53.4063 8.64734ZM22.5492 12.4502H17.538C17.4223 12.4502 17.3065 12.4502 17.1908 12.4302C16.898 12.3769 16.7278 12.1569 16.7414 11.877C16.755 11.5905 16.9321 11.3972 17.2248 11.3572C17.327 11.3439 17.4359 11.3439 17.538 11.3439H21.5687C22.0133 11.3439 22.4578 11.3446 22.9027 11.3454H22.9034H22.9042H22.9049H22.9057H22.9065H22.9072H22.908H22.9088H22.9095H22.9096H22.9097H22.9098H22.91H22.9101H22.9102H22.9103H22.9104H22.9105C23.8051 11.3469 24.7008 11.3483 25.5994 11.3439C26.4641 11.3439 27.0156 10.7774 27.0224 9.93103V8.81141V6.23894C27.0224 5.6658 26.7501 5.25261 26.2258 4.99269C26.0011 4.8794 25.7628 4.86607 25.5177 4.86607H20.5066H15.5567H15.2367C14.6512 4.91272 14.1541 5.32591 14.018 5.87906C13.9771 6.05234 13.9771 6.22561 13.9771 6.40555V13.6031C13.9771 13.7364 13.9771 13.8697 14.0044 14.003C14.0997 14.6295 14.6512 15.116 15.298 15.116H22.6581C22.8964 15.116 22.9032 15.116 22.9032 14.876V12.7634L22.9033 12.7086C22.9038 12.5664 22.904 12.4976 22.8697 12.4648C22.8376 12.4339 22.7751 12.4347 22.6541 12.4361H22.654H22.654H22.6539H22.6539H22.6538H22.6537C22.6247 12.4365 22.5922 12.4369 22.556 12.4369L22.5492 12.4502ZM17.218 7.56516C17.2742 7.55516 17.3304 7.55641 17.3865 7.55766C17.4053 7.55808 17.424 7.5585 17.4427 7.5585H23.5636C23.659 7.5585 23.7543 7.5585 23.8428 7.58516C24.1356 7.66513 24.299 7.88505 24.2649 8.15829C24.2309 8.44487 24.0334 8.63147 23.7475 8.65146C23.6928 8.65593 23.635 8.65441 23.5783 8.65292C23.5503 8.65219 23.5225 8.65146 23.4956 8.65146H20.5134H17.4972C17.4019 8.65146 17.3065 8.65146 17.2112 8.63813C16.9116 8.58482 16.7346 8.37822 16.7414 8.09831C16.7482 7.81841 16.9321 7.60515 17.218 7.5585V7.56516ZM68.0618 8.56866V8.28948H68.0414C68.0278 7.83749 67.7965 7.59155 67.3273 7.55167H67.1369H61.4038C61.3836 7.55167 61.363 7.55126 61.3421 7.55085C61.2788 7.5496 61.2136 7.54831 61.1521 7.55831C60.7849 7.60484 60.5673 7.83749 60.5333 8.19643V8.50884V14.6706V14.89L60.5332 14.8906C60.5265 15.1093 60.5263 15.116 60.302 15.116H58.4318H57.9217C57.8197 15.116 57.7721 15.0761 57.7721 14.9697V14.7504C57.7721 13.8145 57.7736 12.8794 57.7751 11.9448L57.7752 11.9392C57.7782 10.0677 57.7812 8.19815 57.7721 6.32862C57.7653 5.47116 58.425 4.85299 59.2547 4.86628C60.3792 4.87514 61.5067 4.87219 62.6333 4.86923H62.6333H62.6334H62.6334H62.6335H62.6335H62.6336H62.6337H62.6337H62.6339H62.6342H62.6344H62.6346H62.6348H62.635H62.6352H62.6355C63.1978 4.86776 63.76 4.86628 64.3213 4.86628C64.8813 4.86628 65.4412 4.86776 66.0011 4.86923H66.0013C67.1211 4.87219 68.2409 4.87514 69.3607 4.86628C69.9728 4.85963 70.5169 5.19863 70.7209 5.74368C70.8025 5.94974 70.8161 6.16244 70.8161 6.3818V9.87812V14.7703C70.8161 14.7928 70.8163 14.8138 70.8165 14.8334L70.8168 14.8595C70.8183 14.9712 70.8191 15.0329 70.7888 15.0671C70.7513 15.1093 70.6663 15.1093 70.4761 15.1093H68.3882C68.0618 15.1093 68.0618 15.1093 68.0618 14.7903V8.56866ZM41.7325 4.86661H39.5697C39.5434 4.86661 39.5196 4.86645 39.498 4.8663H39.4979C39.3835 4.86553 39.3292 4.86516 39.2942 4.89102C39.2624 4.91445 39.2466 4.95943 39.2165 5.04519C39.2052 5.0771 39.192 5.11467 39.1753 5.15888C38.8794 5.96274 38.5868 6.76659 38.2941 7.57045C38.0015 8.37407 37.709 9.17769 37.4132 9.98132C37.3316 10.2028 37.2509 10.4253 37.17 10.6479L37.1697 10.6488C37.0301 11.0334 36.8902 11.4187 36.7453 11.8014C36.5926 12.2132 36.2554 12.4457 35.8547 12.439C35.4603 12.439 35.1486 12.1999 34.9959 11.8014C34.9864 11.7715 34.9752 11.7432 34.9641 11.715C34.953 11.6868 34.9418 11.6585 34.9323 11.6287C34.5379 10.5459 34.1419 9.46321 33.7459 8.38048C33.3499 7.29776 32.954 6.21503 32.5596 5.13231C32.4641 4.87325 32.4641 4.87325 32.2033 4.87325H30.0723C30.055 4.87325 30.0375 4.8721 30.0198 4.87093C29.9527 4.86651 29.8833 4.86193 29.8178 4.91975C29.8226 5.01386 29.8556 5.10057 29.8879 5.18541L29.888 5.18551L29.888 5.1856L29.8881 5.1857L29.8881 5.1858L29.8881 5.18586C29.8991 5.21465 29.91 5.24323 29.9196 5.2718C30.2377 6.14187 30.5557 7.01361 30.8737 7.88534L30.8743 7.88683C31.1922 8.75825 31.5101 9.62967 31.828 10.4994C32.0757 11.1826 32.3251 11.8642 32.5744 12.5457L32.5746 12.5464L32.5748 12.5467L32.575 12.5473L32.5751 12.5477L32.5752 12.548L32.5753 12.5483L32.5755 12.5486L32.5756 12.549L32.5757 12.5493L32.5758 12.5496L32.576 12.5503L32.5762 12.5506L32.5764 12.5512L32.5765 12.5516C32.8258 13.2331 33.0752 13.9146 33.3229 14.5978C33.4374 14.9233 33.6346 15.116 33.9781 15.116H37.7694C38.0748 15.116 38.272 14.9565 38.3865 14.6709C38.4024 14.6277 38.4199 14.5846 38.4374 14.5414C38.4549 14.4982 38.4723 14.455 38.4883 14.4119C39.0447 12.8899 39.5995 11.3697 40.1544 9.84942L40.1579 9.83975L40.1644 9.8221C40.7226 8.2926 41.2808 6.76311 41.8406 5.23195C41.8506 5.20409 41.8624 5.17714 41.8741 5.15039C41.9069 5.07509 41.9391 5.00133 41.9297 4.91311C41.8837 4.86988 41.8344 4.8718 41.7865 4.87367C41.7682 4.87439 41.7501 4.87509 41.7325 4.87325V4.86661ZM16.1025 19.7763C16.1576 19.775 16.2127 19.7737 16.2678 19.7776L16.2619 19.7835C16.563 19.813 16.7578 19.9957 16.7637 20.3021C16.7755 20.7441 16.7755 21.1861 16.7637 21.6222C16.7519 21.9405 16.5394 22.135 16.2029 22.135H14.7979H13.452L13.4282 22.1347L13.4071 22.1343H13.407C13.3591 22.1331 13.3078 22.1319 13.2631 22.1409C13.151 22.1644 13.0978 22.241 13.0978 22.3589C13.1037 22.4709 13.1687 22.5298 13.2749 22.5298H13.635H15.0636C15.2879 22.5357 15.2879 22.5357 15.2879 22.7656V23.2842C15.2879 23.5022 15.282 23.5022 15.0754 23.5022H13.5052H12.6787C12.3245 23.5022 12.1179 23.3136 12.1179 22.9718C12.112 22.0819 12.112 21.1979 12.1179 20.308C12.1179 19.9957 12.3186 19.7953 12.6315 19.7776C12.7493 19.7737 12.8646 19.775 12.9807 19.7763C13.039 19.777 13.0976 19.7776 13.1569 19.7776H16.0199C16.0474 19.7776 16.075 19.777 16.1025 19.7763ZM15.4945 21.1521C15.5378 21.1534 15.5811 21.1547 15.6244 21.1508H15.6303C15.7365 21.139 15.7897 21.0742 15.7956 20.9681C15.8015 20.8502 15.7483 20.7736 15.6303 20.7559C15.5772 20.75 15.5181 20.75 15.465 20.75H13.4343C13.3753 20.75 13.3104 20.75 13.2454 20.7618C13.1392 20.7795 13.1037 20.8561 13.1037 20.9622C13.1037 21.0565 13.1451 21.1213 13.2395 21.139C13.3104 21.1508 13.3871 21.1508 13.4579 21.1508H14.4438H15.4296C15.4512 21.1508 15.4729 21.1514 15.4945 21.1521ZM72.0971 19.775H70.3515H68.576C68.2186 19.775 68.0339 19.9695 68.022 20.3231V20.5706V22.9574C68.022 23.2874 68.2126 23.4996 68.5165 23.4996C69.0761 23.5035 69.6357 23.5022 70.197 23.5009H70.1981H70.1993H70.2004H70.2015H70.2027C70.4821 23.5003 70.762 23.4996 71.0426 23.4996C71.1737 23.4996 71.2332 23.4525 71.2273 23.3228V22.7747C71.2273 22.5331 71.2154 22.5272 70.9771 22.5213H69.3684C69.3508 22.5213 69.3327 22.5217 69.3145 22.522C69.259 22.5231 69.2018 22.5243 69.148 22.5154C69.0467 22.4918 68.9812 22.427 68.9931 22.3209C69.005 22.2266 69.0467 22.1441 69.1599 22.1323C69.1957 22.1294 69.2329 22.1294 69.2701 22.1294C69.3074 22.1294 69.3446 22.1294 69.3804 22.1264H72.0137H72.2342C72.4903 22.097 72.681 21.9025 72.681 21.655V20.2582C72.681 20.0932 72.6036 19.9813 72.4844 19.887C72.3712 19.7986 72.2342 19.7809 72.0912 19.7809L72.0971 19.775ZM71.5192 21.154H71.1022H70.3277H69.2731C69.2016 21.154 69.1242 21.154 69.0646 21.101C69.005 21.048 68.9991 20.9713 69.0169 20.8947C69.0348 20.8122 69.0825 20.7651 69.1659 20.7533C69.2314 20.7474 69.2969 20.7474 69.3565 20.7474H71.3524H71.5192C71.6384 20.7592 71.698 20.8299 71.698 20.9478C71.698 21.0656 71.6384 21.1423 71.5133 21.1423L71.5192 21.154ZM50.3767 19.775H51.065C51.1927 19.775 51.2494 19.8162 51.2494 19.9222V20.034V22.9366C51.2494 23.3193 51.0295 23.5018 50.5541 23.5018H48.4753C48.2454 23.5018 48.0162 23.5005 47.7876 23.4991H47.7875H47.7875H47.7874H47.7873C47.3318 23.4965 46.8783 23.4939 46.4248 23.5018C45.9211 23.5135 45.6586 23.2957 45.6586 22.8659V20.3461C45.6586 20.2898 45.6669 20.2344 45.6751 20.1792C45.6885 20.09 45.7018 20.0013 45.6799 19.9104C45.6586 19.8221 45.7295 19.775 45.836 19.775H46.659C46.7867 19.775 46.8292 19.828 46.8292 19.9281V20.1224V22.1476C46.8292 22.4773 46.886 22.5244 47.2904 22.5244H49.6389C50.022 22.5244 50.0788 22.4773 50.0788 22.1535V20.0164C50.0788 19.775 50.0858 19.775 50.3767 19.775ZM29.0487 19.775H27.026H24.9321C24.4193 19.775 24.227 19.9393 24.227 20.3561V23.0385C24.227 23.3437 24.4169 23.4964 24.7968 23.4964C25.1766 23.4964 25.3689 23.3379 25.3737 23.0209V21.0781C25.3737 20.8374 25.452 20.7552 25.7013 20.7552C26.563 20.7494 27.4248 20.7494 28.2937 20.7552C28.543 20.7552 28.6213 20.8374 28.6356 21.0487V21.4596V23.2381C28.6356 23.3597 28.6356 23.4254 28.6683 23.4608C28.7066 23.5022 28.7898 23.5022 28.9703 23.5022H29.5045C29.8107 23.5022 29.8178 23.5022 29.8178 23.2498V20.4089C29.8178 19.9863 29.5757 19.7926 29.0629 19.7926L29.0487 19.775ZM3.89493 18.856H4.45608V18.8436C4.67329 18.8436 4.6914 18.8622 4.62503 19.0726C4.54056 19.3479 4.45458 19.6216 4.3686 19.8954C4.28261 20.1691 4.19662 20.4429 4.11215 20.7182L4.11207 20.7185C3.86471 21.5226 3.61735 22.3268 3.36396 23.131C3.24931 23.5022 3.24328 23.5022 2.87522 23.5022H2.33821H1.69259C1.46934 23.5022 1.409 23.4589 1.34263 23.2486C0.94442 21.9927 0.552245 20.7307 0.160069 19.4687L0.160065 19.4687L0.160001 19.4685C0.14391 19.4169 0.128489 19.3654 0.113069 19.3138C0.0822305 19.2107 0.0513925 19.1076 0.0151908 19.0045C-0.0270459 18.8808 0.0212215 18.8436 0.12983 18.8436C0.203996 18.8436 0.278827 18.845 0.353882 18.8464H0.353927H0.353972H0.354079H0.354109C0.504908 18.8491 0.656608 18.8519 0.805619 18.8436C0.938363 18.8375 1.01077 18.8931 1.04697 19.0231C1.10128 19.2025 1.15709 19.3803 1.2129 19.5582C1.26871 19.7361 1.32453 19.9139 1.37883 20.0934C1.48743 20.4398 1.59453 20.7878 1.70162 21.1358L1.70164 21.1358C1.80874 21.4838 1.91584 21.8318 2.02445 22.1783C2.05462 22.2711 2.08479 22.3639 2.16323 22.4257C2.31407 22.5495 2.51319 22.4876 2.59163 22.2773C2.68043 22.0496 2.75391 21.8115 2.82617 21.5774L2.84505 21.5163C3.01046 20.9996 3.17097 20.4804 3.33127 19.9618L3.33128 19.9618L3.3313 19.9617C3.42242 19.667 3.51347 19.3725 3.60531 19.0787C3.67168 18.856 3.67771 18.856 3.89493 18.856ZM38.924 19.5866H38.3226C38.0765 19.5804 38.0082 19.5123 37.9945 19.2897V18.999C37.9945 18.8938 37.9467 18.8381 37.8237 18.8443H37.3179C37.2773 18.8443 37.2403 18.844 37.2066 18.8437C37.0424 18.8422 36.9561 18.8414 36.9114 18.8841C36.8619 18.9314 36.8635 19.0322 36.8667 19.2445L36.8668 19.2464C36.8668 19.5123 36.8258 19.5556 36.525 19.5866C36.3883 19.5989 36.3405 19.6422 36.3405 19.7597C36.3405 19.8342 36.3413 19.9079 36.342 19.9815C36.3435 20.1279 36.3451 20.2733 36.3405 20.4216C36.3405 20.5576 36.3952 20.6009 36.5455 20.6133C36.8189 20.638 36.8668 20.6999 36.8736 20.9411V22.1225V23.3038C36.8736 23.4523 36.9283 23.5079 37.0923 23.5018C37.3247 23.4956 37.5571 23.4956 37.7895 23.5018C37.9603 23.5079 38.015 23.4399 38.0014 23.2977V23.1245V20.9968C38.0014 20.6751 38.0697 20.6133 38.4319 20.6071H38.9377C39.0676 20.6071 39.1359 20.5576 39.1359 20.4339V19.7412C39.1359 19.6113 39.0607 19.5804 38.9309 19.5804L38.924 19.5866ZM59.7702 19.7845C59.9542 19.7829 60.1382 19.7813 60.3222 19.7813L60.3154 19.7872C60.4488 19.7872 60.5116 19.7872 60.5412 19.8185C60.5675 19.8464 60.5675 19.8992 60.5675 19.9988V20.5455C60.5643 20.6413 60.5626 20.6925 60.5362 20.7199C60.506 20.7512 60.4432 20.7512 60.3086 20.7512H59.3545C58.932 20.7571 58.898 20.7865 58.898 21.1392V23.2436C58.898 23.5022 58.8912 23.5022 58.605 23.5022H58.0053L58.0047 23.5022C57.7804 23.4963 57.7736 23.4962 57.7736 23.3024V21.7975C57.7736 21.6427 57.7766 21.4879 57.7797 21.3332C57.7857 21.0236 57.7918 20.714 57.7736 20.4044C57.7464 19.9929 58.0871 19.7637 58.4823 19.7754C58.9116 19.7919 59.3409 19.7882 59.7702 19.7845Z" fill="#676F6D"/>
</svg>
