<svg width="121" height="38" viewBox="0 0 121 38" fill="none" xmlns="http://www.w3.org/2000/svg">
<path fill-rule="evenodd" clip-rule="evenodd" d="M31.9991 21.3976C32.0019 20.636 32.0047 19.8747 32.0047 19.114H31.9974C31.9974 18.3998 31.9965 17.6852 31.9955 16.9703V16.97C31.9928 14.8245 31.99 12.677 32.012 10.5336C32.0194 9.95763 31.8067 9.65488 31.3226 9.37429C27.0342 6.90461 22.7572 4.41786 18.4766 1.92903L18.4765 1.92896L18.4764 1.92889L18.4763 1.92882L18.4761 1.92875L18.476 1.92868L18.4759 1.92861L18.4758 1.92854L18.4755 1.92836L18.4752 1.92821L18.4752 1.92818L16.6893 0.88989C16.2565 0.638829 15.8751 0.594524 15.3983 0.882506C14.8767 1.1944 14.3387 1.48022 13.8008 1.766L13.8008 1.76601C13.0907 2.14329 12.3808 2.52049 11.7088 2.95745C9.72883 4.24238 7.67809 5.40786 5.62789 6.57304L5.62789 6.57304C4.00209 7.49702 2.37664 8.42081 0.787045 9.40382C0.229587 9.74349 0.0315423 10.0536 0.0315423 10.6739C0.0357961 11.6588 0.0416944 12.6443 0.0475948 13.6301C0.0722174 17.744 0.0968753 21.8637 0.00220239 25.9739C-0.0344725 27.7313 0.376286 28.7355 2.03399 29.6216C6.30295 31.8664 10.4472 34.3549 14.5768 36.8655C15.6624 37.5301 16.4032 37.5227 17.4815 36.8655C21.8538 34.2087 26.2886 31.6567 30.7183 29.1075L30.7184 29.1074L31.0952 28.8906C31.748 28.514 32.0414 28.1374 32.0267 27.3399C31.9843 25.3612 31.9917 23.3785 31.9991 21.3976ZM25.2345 14.3586V19.0475L25.2419 19.0328C25.2419 19.492 25.2399 19.9507 25.2379 20.409V20.4096V20.4101V20.4106V20.4112V20.4117V20.4122V20.4127V20.4133V20.4138V20.4143V20.4144V20.4144V20.4145V20.4146V20.4146V20.4147V20.4148V20.4148V20.4149V20.4149C25.2333 21.4874 25.2287 22.5584 25.2492 23.6331C25.2639 24.1131 25.1465 24.4306 24.6991 24.689C21.9558 26.2619 19.2198 27.8421 16.5059 29.4592C16.1392 29.6881 15.9338 29.6586 15.5964 29.4592C14.1882 28.6372 12.7735 27.8283 11.3588 27.0194L11.3583 27.0191C10.6509 26.6146 9.94351 26.2101 9.23694 25.804C9.17145 25.7656 9.10901 25.7179 9.04697 25.6706C8.94224 25.5906 8.83865 25.5116 8.72349 25.4791C6.99244 24.9992 6.72104 23.7882 6.80906 22.1489C6.91281 20.2689 6.88648 18.3767 6.8602 16.4874V16.4874V16.4874V16.4873V16.4873V16.4873V16.4873V16.4872V16.4872V16.4872V16.4871C6.85117 15.8386 6.84215 15.1904 6.8384 14.5432C6.83107 14.0042 6.9631 13.6719 7.49122 13.3765C9.86132 12.0416 12.2034 10.6617 14.5469 9.281C14.8869 9.0807 15.2269 8.88038 15.567 8.68017C15.8751 8.49557 16.1318 8.4808 16.4546 8.66541C19.2712 10.2899 22.0878 11.907 24.9118 13.5168C25.2429 13.7101 25.2392 13.9817 25.2354 14.2662C25.2349 14.2969 25.2345 14.3277 25.2345 14.3586ZM47.7651 25.7081C44.2383 25.8758 41.1009 22.6572 41.2035 19.0475C41.2989 15.8723 42.5972 13.6053 45.4945 12.4534C48.5532 11.2424 52.2647 12.3353 53.6437 15.9018C53.7317 16.1233 53.7244 16.2341 53.475 16.3818C53.1718 16.564 52.8434 16.6507 52.5158 16.7372C52.3124 16.7908 52.1093 16.8445 51.9126 16.9208C51.6073 17.04 51.519 16.8075 51.4364 16.5899L51.4364 16.5899C51.4217 16.5514 51.4073 16.5133 51.3918 16.4778C50.6143 14.6687 48.9566 14.0041 47.4603 14.1591C45.5312 14.3511 44.1302 15.8206 43.7635 17.3491C43.2794 19.365 43.4994 21.2036 45.1278 22.6288C47.0862 24.3345 50.3503 23.6773 51.4065 21.3513C51.6779 20.7532 51.8979 20.7606 52.4407 20.9452C52.5735 20.9897 52.695 21.0296 52.8059 21.066C53.4061 21.2631 53.692 21.357 53.7499 21.5281C53.8026 21.6838 53.6665 21.9034 53.4065 22.3228C53.3144 22.4715 53.2066 22.6453 53.0862 22.8503C51.9133 24.8502 50.1176 25.7955 47.7651 25.7081ZM119.791 16.4259L119.792 16.4396C118.188 16.1236 116.775 16.2801 115.808 17.8437C115.571 18.2324 115.208 18.5466 114.852 18.8541C114.789 18.9087 114.726 18.9632 114.664 19.0178C114.611 19.0644 114.562 19.13 114.512 19.1972C114.379 19.3748 114.238 19.5639 114.003 19.4461C113.78 19.3337 113.807 19.0847 113.833 18.8484C113.841 18.7741 113.849 18.701 113.849 18.6338C113.848 18.1609 113.843 17.688 113.839 17.2152C113.827 15.7981 113.815 14.3821 113.864 12.9701C113.893 12.025 113.461 11.929 112.698 11.929C111.942 11.929 111.517 12.0028 111.532 12.9628C111.569 15.6432 111.563 18.3236 111.558 21.004L111.558 21.0146C111.556 21.9858 111.554 22.957 111.554 23.9282C111.554 24.6648 111.554 25.0304 111.736 25.2128C111.917 25.3925 112.274 25.3941 112.985 25.3973L113.072 25.3977C113.71 25.4051 113.901 25.1762 113.849 24.578C113.805 24.1055 113.827 23.6329 113.849 23.1603C113.879 22.5622 114.312 22.1708 114.774 22.001C115.082 21.8887 115.224 22.1556 115.363 22.4152C115.416 22.5143 115.468 22.6122 115.529 22.6877C115.918 23.1751 116.307 23.6698 116.673 24.1793C116.759 24.2992 116.83 24.433 116.901 24.5664C117.122 24.9833 117.342 25.3961 117.986 25.3681C118.409 25.3538 118.828 25.358 119.302 25.3628C119.56 25.3654 119.835 25.3681 120.135 25.3681C119.891 25.0275 119.653 24.6956 119.421 24.3709L119.42 24.3698L119.42 24.3692L119.419 24.3677C118.544 23.1456 117.744 22.0264 116.915 20.9303C116.497 20.3838 116.497 20.022 117.04 19.5494C117.796 18.8922 118.492 18.1538 119.153 17.3933C119.218 17.318 119.298 17.249 119.381 17.1789C119.602 16.9902 119.833 16.793 119.792 16.4396L119.798 16.4407L119.791 16.4259ZM57.9384 16.8832L57.7809 16.9643C57.7809 16.5138 57.7747 16.0766 57.7687 15.6489C57.7549 14.6813 57.7419 13.7628 57.8029 12.8513C57.8643 11.9318 57.3998 11.9306 56.8099 11.9291C56.765 11.929 56.7195 11.9288 56.6733 11.9283C55.9912 11.9209 55.5511 11.9209 55.5658 12.8661C55.6081 15.5275 55.6008 18.1928 55.5934 20.8564C55.5906 21.8805 55.5878 22.9043 55.5878 23.9276C55.5878 24.6578 55.5878 25.0158 55.7668 25.1942C55.9391 25.3658 56.2772 25.3711 56.9407 25.3813L57.0034 25.3822C57.6049 25.3896 57.8103 25.2419 57.7956 24.6069C57.7516 23.0119 57.7589 21.4243 57.8029 19.8294C57.8249 18.7956 58.6538 18.1162 59.7394 18.131C60.7589 18.1458 61.4704 18.862 61.4778 19.9106C61.4826 20.8139 61.481 21.714 61.4794 22.6152V22.616V22.6168V22.6176V22.6184V22.6192V22.62V22.6209V22.6217C61.4786 23.0737 61.4778 23.5261 61.4778 23.9793C61.4778 25.4858 61.4778 25.4858 62.9741 25.378L63.0181 25.3749C63.4289 25.3453 63.5756 25.2198 63.5756 24.7989C63.5668 24.0664 63.572 23.3339 63.5773 22.6018V22.6018V22.6017V22.6016V22.6016V22.6015V22.6015V22.6014V22.6013C63.5852 21.5035 63.5932 20.4066 63.5536 19.3125C63.4875 17.592 62.6367 16.6911 61.0303 16.2111C59.8981 15.8734 58.9922 16.3402 57.9384 16.8832ZM73.3678 21.9123C73.3678 22.1995 73.3666 22.486 73.3654 22.7723C73.3624 23.4872 73.3595 24.2006 73.3752 24.9177C73.3752 24.937 73.3757 24.9571 73.3765 24.9778L73.3782 25.0183L73.3783 25.0186C73.3857 25.1851 73.3936 25.3617 73.2358 25.3312C73.0349 25.2979 72.8218 25.3336 72.6083 25.3694C72.1592 25.4446 71.7084 25.5201 71.3654 24.9546C71.1714 24.6444 70.9818 24.8213 70.8104 24.9813C70.7615 25.0269 70.7141 25.0711 70.6686 25.1023C69.0915 26.173 66.6417 25.8776 65.7981 23.9577C65.0866 22.3332 66.2456 20.8195 67.6539 20.3543C68.1215 20.1997 68.6023 20.1488 69.0806 20.0981C69.6078 20.0422 70.1319 19.9867 70.6319 19.7931C71.27 19.5494 71.4021 18.9808 70.9546 18.4492C70.1478 17.4966 68.5414 17.7181 67.962 18.8627C67.9376 18.9091 67.9152 18.9595 67.8926 19.0104L67.8925 19.0105C67.7928 19.2351 67.6888 19.4693 67.3898 19.4091L67.3045 19.3931L67.238 19.3808C66.7747 19.2951 66.2863 19.2048 65.9228 18.9587C65.6954 18.8036 65.9302 18.3015 66.0915 17.984C66.825 16.4628 68.8055 15.9016 70.2651 16.1232C71.4827 16.3078 72.539 16.736 73.1038 17.9766C73.2431 18.2867 73.3092 18.5895 73.3165 18.907C73.3263 19.5762 73.323 20.2421 73.3198 20.9092C73.3181 21.2431 73.3165 21.5773 73.3165 21.9123H73.3678ZM71.248 21.9936C71.3507 21.3881 71.028 21.1665 70.4412 21.3954C70.0046 21.5611 69.557 21.5893 69.108 21.6176L69.0022 21.6244L68.9263 21.6294L68.8935 21.6317C68.1893 21.676 67.8886 22.1929 67.7566 22.7467C67.6392 23.2267 67.9913 23.6033 68.4167 23.8544C69.561 24.5411 71.1893 23.5147 71.248 21.9936ZM101.072 17.2901V20.8271C101.072 21.1572 101.07 21.4881 101.069 21.8196V21.8212V21.8229V21.8245C101.065 22.4924 101.062 23.1624 101.072 23.8325C101.076 24.1071 101.072 24.3323 101.069 24.5171C101.061 24.9232 101.057 25.1337 101.16 25.2435C101.271 25.3618 101.506 25.3633 101.995 25.3665C102.167 25.3677 102.371 25.369 102.612 25.3757C103.214 25.3905 103.346 25.1468 103.331 24.593C103.302 23.0276 103.309 21.4695 103.331 19.9041C103.346 18.7965 104.057 18.1245 105.165 18.1245C106.221 18.1171 106.859 18.7669 106.881 19.9115C106.891 20.7907 106.888 21.6733 106.884 22.5569V22.5577V22.5586V22.5594V22.5602V22.561V22.5618L106.884 22.5672C106.883 23.0085 106.881 23.45 106.881 23.8915V23.8916C106.881 24.6525 106.881 25.0254 107.068 25.208C107.247 25.3836 107.598 25.3834 108.287 25.3832L108.37 25.3831C108.95 25.3831 109.038 25.169 109.03 24.6595C109.018 23.709 109.019 22.7607 109.021 21.8122C109.021 21.0217 109.022 20.2311 109.016 19.4389C109.016 19.0032 109.001 18.5749 108.84 18.1393C108.106 16.1382 105.737 15.5327 104.021 16.6624C103.978 16.6906 103.936 16.7206 103.896 16.7498C103.64 16.935 103.426 17.0904 103.096 16.5738C102.814 16.1333 102.27 16.2343 101.772 16.3266C101.636 16.3519 101.503 16.3765 101.38 16.3892C101.032 16.42 101.05 16.7891 101.066 17.1079C101.069 17.1717 101.072 17.2334 101.072 17.2901ZM82.9396 17.3263C84.0105 16.2999 85.0228 15.9602 86.3284 16.2187C87.7734 16.5066 88.6976 17.7546 88.7563 19.128C88.8074 20.3391 88.8026 21.5502 88.7978 22.7632C88.795 23.4657 88.7922 24.1688 88.8003 24.8729C88.8003 25.2716 88.6536 25.3528 88.2868 25.375L88.2422 25.3779C87.4187 25.4321 87.0081 25.4591 86.8034 25.2668C86.5998 25.0756 86.5998 24.6676 86.5998 23.8539V20.1396C86.5924 18.8474 85.925 18.1164 84.8027 18.1238C83.6731 18.1311 82.947 18.9286 82.9396 20.1913C82.9384 20.4312 82.937 20.6714 82.9357 20.9116L82.9356 20.9144L82.9356 20.9174L82.9356 20.9204L82.9356 20.9233C82.9284 22.1507 82.9213 23.3814 82.9396 24.6071C82.947 25.1313 82.8736 25.3898 82.2428 25.3824L82.1369 25.3809C80.7025 25.3611 80.7024 25.3611 80.7024 23.8612C80.7024 23.1857 80.7016 22.5102 80.7008 21.8344V21.8336V21.8328V21.832V21.8312V21.8272C80.6992 20.474 80.6976 19.1196 80.7024 17.7619C80.7032 17.5911 80.702 17.441 80.701 17.309V17.309C80.6969 16.8036 80.695 16.565 80.8133 16.4504C80.9192 16.3478 81.1213 16.3446 81.5044 16.3385C81.6635 16.3359 81.8538 16.3329 82.0814 16.322C82.7269 16.2925 83.0203 16.4697 82.9176 17.3263H82.9396ZM91.2758 17.0942C91.2741 17.6324 91.2725 18.1704 91.2725 18.7078V23.8324C91.2725 24.6463 91.2725 25.0544 91.4762 25.2482C91.681 25.4429 92.0916 25.4213 92.9149 25.378L92.9595 25.3757C93.3556 25.3535 93.5317 25.2723 93.5317 24.8293C93.5243 20.7311 93.5243 16.6402 93.5317 12.542C93.5317 12.0916 93.3556 11.8996 92.9009 11.9365C92.6368 11.9587 92.3654 11.9661 92.1087 11.9365C91.4485 11.8553 91.2431 12.1285 91.2578 12.7857C91.2845 14.2194 91.2801 15.6571 91.2758 17.0929V17.0932V17.0935V17.0938V17.0942ZM78.0768 20.9596C78.0768 21.3293 78.0748 21.6996 78.0728 22.0703C78.0682 22.9359 78.0636 23.803 78.0841 24.6664C78.0988 25.1907 77.9668 25.3975 77.4093 25.3827C77.1968 25.3776 77.0131 25.3759 76.8545 25.3745C76.3148 25.3695 76.065 25.3673 75.9533 25.2419C75.8571 25.1341 75.8631 24.935 75.8743 24.5646V24.5645V24.5643V24.5641C75.8796 24.3918 75.8859 24.1825 75.8836 23.928C75.878 23.0981 75.881 22.2683 75.8839 21.4384C75.8886 20.0899 75.8934 18.7415 75.8616 17.393C75.8396 16.5365 76.1183 16.2854 76.9619 16.3002C77.732 16.3223 78.1575 16.3962 78.0915 17.334C78.0298 18.1767 78.0437 19.023 78.0576 19.8679V19.8681L78.0576 19.8689C78.0635 20.2304 78.0695 20.5916 78.0695 20.9522L78.0768 20.9596ZM98.441 21.9762V21.9754V21.9747C98.4434 21.6137 98.4458 21.2531 98.4458 20.893V20.9004C98.4458 20.5162 98.4466 20.1327 98.4474 19.7496V19.7488V19.748C98.449 18.983 98.4507 18.2191 98.4458 17.452C98.4443 17.3248 98.4444 17.2121 98.4444 17.1123C98.4446 16.7143 98.4447 16.5215 98.3485 16.4288C98.258 16.3417 98.0825 16.343 97.742 16.3454C97.6182 16.3463 97.4727 16.3474 97.3015 16.3444C97.2819 16.3444 97.2624 16.3452 97.2428 16.346C97.2037 16.3477 97.1646 16.3493 97.1255 16.3444C96.37 16.2115 96.1939 16.5659 96.2086 17.2748C96.2353 18.8804 96.2309 20.4861 96.2265 22.0917C96.2249 22.6939 96.2233 23.2962 96.2233 23.8984C96.2233 24.6655 96.2233 25.0459 96.4134 25.2308C96.6003 25.4126 96.971 25.4054 97.7062 25.3912L97.771 25.39C98.2917 25.3826 98.4824 25.2423 98.4604 24.6885C98.429 23.7865 98.435 22.8807 98.441 21.9766V21.9762ZM77.0423 11.8326C77.8125 11.8474 78.524 12.5636 78.4726 13.2873C78.4286 13.9297 77.6364 14.705 77.013 14.705C76.3675 14.705 75.5533 13.8854 75.5533 13.2208C75.5533 12.4824 76.2648 11.8252 77.0423 11.8326ZM98.7612 13.2801C98.8052 12.5564 98.1671 11.8845 97.3895 11.8402C96.502 11.7885 95.9739 12.2389 95.9299 13.0733C95.8859 13.9668 96.458 14.6609 97.2575 14.6905C97.9103 14.7126 98.7172 13.952 98.7612 13.2801Z" fill="#676F6D"/>
</svg>
