<svg width="117" height="24" viewBox="0 0 117 24" fill="none" xmlns="http://www.w3.org/2000/svg">
<g clip-path="url(#clip0_1989_6139)">
<path fill-rule="evenodd" clip-rule="evenodd" d="M4.12301 23.9833C3.70852 23.9833 3.29402 23.9821 2.87952 23.981H2.87901C2.05019 23.9787 1.22137 23.9763 0.392547 23.9833C0.0561936 23.9833 -0.111983 23.9781 0.0663861 23.551C1.5545 19.9937 3.02731 16.4364 4.49504 12.8687C5.02348 11.5903 5.54492 10.3082 6.06655 9.02577C6.43532 8.11909 6.80419 7.2122 7.17567 6.30621C7.29328 6.01959 7.40893 5.73196 7.5246 5.44427C7.86504 4.59751 8.20573 3.75015 8.59753 2.926C9.48428 1.05621 11.0081 0.0770406 13.0211 0.0249572C14.438 -0.0116254 15.8566 -0.00538278 17.276 0.000863031C18.2816 0.00528794 19.2875 0.00971446 20.2935 -0.00108444C20.854 -0.00629277 20.8795 0.144749 20.6808 0.613499C19.0602 4.47287 17.4548 8.33746 15.8546 12.202C15.2685 13.6187 14.6876 15.038 14.1066 16.4572C13.5256 17.8765 12.9446 19.2958 12.3586 20.7125C11.4616 22.8791 9.77477 23.9937 7.49164 23.9833C6.74419 23.9798 5.99674 23.981 5.24929 23.9821C4.87556 23.9827 4.50183 23.9833 4.12811 23.9833H4.12301ZM36.9479 0.0408275C36.265 1.71791 35.6025 3.34291 34.9349 4.97312C33.936 7.40541 32.9321 9.8377 31.923 12.27C31.1434 14.1544 30.3594 16.0388 29.5753 17.9232L29.5748 17.9242L29.5744 17.9252L29.574 17.9262L29.5736 17.9272L29.5732 17.9282L29.5728 17.9292L29.5724 17.9301L29.572 17.9311L29.5716 17.9321L29.5711 17.9331L29.5709 17.9336L29.5705 17.9346L29.5703 17.9351L29.5699 17.9361L29.5697 17.9366C29.1767 18.8811 28.7837 19.8255 28.3913 20.77C27.4842 22.9471 25.8279 23.9731 23.5448 23.9835C22.5878 23.9878 21.6308 23.9859 20.6741 23.984C19.3077 23.9813 17.9421 23.9786 16.5782 23.994C16.0125 23.9992 15.9921 23.8533 16.1908 23.3794C18.0408 18.9471 19.8754 14.5044 21.7101 10.0617L21.7104 10.061L21.7107 10.0603L21.711 10.0596L21.7113 10.0588C22.6588 7.7629 23.6063 5.46697 24.5385 3.16062C25.2775 1.33249 27.1376 0.0199942 29.0691 0.0147859C30.7139 0.00783984 32.3586 0.0101573 34.0019 0.0124727C34.823 0.0136295 35.6437 0.0147859 36.4638 0.0147859C36.5466 0.0147859 36.6277 0.0204526 36.7246 0.0272358L36.7246 0.0272364C36.7887 0.0317168 36.8597 0.0366842 36.9428 0.0408275H36.9479ZM76.5917 5.02009C75.2106 3.57217 73.5441 3.49405 71.8827 4.9003C72.1427 3.91071 71.6177 3.92113 71.047 3.95759C70.7004 3.98363 70.3488 3.98884 70.0073 3.95759C69.6047 3.92113 69.4926 4.08259 69.4926 4.48884C69.4997 5.35095 69.4991 6.21419 69.4985 7.07804V7.07819V7.07834V7.07848V7.07863V7.07878V7.07893V7.07907V7.07922V7.07937V7.07952V7.07966V7.07981V7.07996V7.08011C69.4977 8.06825 69.497 9.05719 69.5079 10.0461C69.5094 10.2264 69.4868 10.4219 69.4641 10.6179L69.4641 10.6181C69.4094 11.0903 69.3544 11.5655 69.6353 11.8378C69.8644 12.0588 70.257 12.0166 70.6617 11.9731C70.8961 11.948 71.1346 11.9223 71.3476 11.9472C71.8624 12.0045 71.9388 11.7805 71.9286 11.317C71.9011 10.1922 71.9107 9.06742 71.9204 7.94266V7.94196L71.9235 7.56696C71.9337 6.57738 72.4637 6.00967 73.3607 5.99405C74.2882 5.97842 74.8743 6.55655 74.8895 7.54613C74.8937 7.89785 74.8919 8.24956 74.89 8.60128V8.60193C74.8874 9.10416 74.8848 9.6064 74.8997 10.1086C74.9045 10.293 74.8807 10.4955 74.857 10.6977C74.8043 11.1465 74.7519 11.5936 75.0119 11.8378C75.2511 12.0622 75.6504 12.0195 76.0608 11.9757C76.2887 11.9514 76.52 11.9267 76.7293 11.9472C77.1829 11.994 77.3205 11.843 77.3103 11.3638C77.2797 10.093 77.2848 8.82217 77.3103 7.55134C77.3256 6.63467 77.7587 6.12946 78.5334 6.01488C79.5781 5.85863 80.2967 6.55655 80.312 7.7805C80.3272 9.00967 80.3324 10.2388 80.3069 11.468C80.2967 11.8638 80.419 11.9784 80.791 11.9524C81.2599 11.9211 81.7287 11.9211 82.1976 11.9524C82.5696 11.9784 82.6868 11.8638 82.6817 11.468C82.6676 10.6698 82.6692 9.87156 82.6707 9.07333V9.07217C82.672 8.43328 82.6732 7.79439 82.6664 7.1555C82.641 5.00446 81.2191 3.72842 79.1245 3.93675C78.3091 4.02009 77.6619 4.43155 77.1115 5.00967C76.9179 5.218 76.8159 5.25446 76.5917 5.02009ZM86.7129 4.95222C87.829 3.86889 88.9502 3.72305 90.1682 4.08764C90.6472 4.22826 91.0804 4.48868 91.3709 4.90534C91.6359 5.29076 91.7888 5.23868 92.0895 4.92097C93.4553 3.47826 95.8454 3.58764 96.936 5.11889C97.2928 5.61889 97.4864 6.1918 97.4966 6.80639C97.5068 7.59805 97.5094 8.38972 97.5119 9.18139C97.5145 9.97305 97.517 10.7647 97.5272 11.5564C97.5272 11.8533 97.4457 11.9626 97.1501 11.9522C96.6404 11.9314 96.1308 11.921 95.6212 11.9522C95.2339 11.9783 95.1421 11.8376 95.1472 11.4574C95.1676 10.1658 95.1676 8.87409 95.1472 7.58243C95.137 6.60847 94.5816 6.01993 93.6999 5.99389C92.8081 5.96784 92.1761 6.56159 92.1659 7.47826C92.1506 8.79076 92.1455 10.1033 92.1659 11.4158C92.171 11.8168 92.0691 11.9783 91.6563 11.947C91.1925 11.9106 90.7186 11.9106 90.2497 11.947C89.8064 11.9835 89.7605 11.7699 89.7656 11.3949C89.7669 11.2308 89.7683 11.0666 89.7697 10.9025V10.902C89.7798 9.7538 89.7898 8.60561 89.7452 7.45743C89.7044 6.36889 88.8737 5.79076 87.8341 6.04597C87.1665 6.20743 86.7639 6.79076 86.7537 7.65534C86.7435 8.90534 86.7384 10.1553 86.7537 11.4053C86.7537 11.7751 86.718 11.9835 86.2696 11.947C86.0574 11.9288 85.8215 11.9469 85.5887 11.9648C85.1562 11.998 84.7346 12.0304 84.4961 11.8272C84.2278 11.5969 84.2834 11.1125 84.3386 10.6316C84.3621 10.4274 84.3855 10.2239 84.3839 10.0408C84.3768 9.17551 84.3774 8.31026 84.3781 7.445C84.3788 6.45609 84.3795 5.46717 84.3687 4.47826C84.3687 4.07201 84.4757 3.91576 84.8783 3.95222C85.2197 3.98347 85.5765 3.99389 85.9179 3.95222C86.5193 3.8793 86.9168 3.99389 86.7027 4.94701L86.7129 4.95222ZM34.6835 23.9823H34.6838H34.6841H34.6844H34.6848H34.6851H34.6855H34.6858H34.6862H34.6866H34.687C35.0967 23.9829 35.5258 23.9835 35.9848 23.9835H35.9899C36.3852 23.9601 36.8155 23.9718 37.2671 23.984C38.021 24.0045 38.8345 24.0266 39.644 23.8898C41.9118 23.4992 43.5324 21.1919 43.0788 19.02C42.7068 17.2335 41.4786 15.9835 39.8376 15.7127C37.845 15.3898 35.9798 16.1554 35.1083 17.8012C34.4791 18.9835 33.8954 20.19 33.3116 21.3968L33.3115 21.3971C32.9591 22.1254 32.6067 22.8539 32.2442 23.5773C32.0556 23.9471 32.1728 23.9835 32.5041 23.9835C33.2081 23.9801 33.9099 23.9812 34.68 23.9823L34.6835 23.9823ZM57.7866 5.32166C57.6983 5.32166 57.6099 5.31993 57.5216 5.31819C57.3449 5.31472 57.1682 5.31125 56.9916 5.32166C56.6807 5.3477 56.4769 5.25395 56.2832 4.9727C55.7175 4.15499 54.8766 3.94145 53.9593 4.08208C53.0929 4.21749 52.4661 4.72791 52.1501 5.57687C51.8036 6.50916 51.8036 7.45708 52.196 8.37374C52.9197 10.0665 55.1722 10.3529 56.2577 8.88416C56.4718 8.59249 56.6858 8.49874 57.0171 8.50916C57.5471 8.52999 58.0771 8.52999 58.6071 8.50916C58.9995 8.49354 59.1575 8.52999 58.9638 9.00916C58.0822 11.2435 55.957 12.3998 53.5057 11.931C51.3908 11.5248 49.9893 10.155 49.5867 8.0977C49.1484 5.85291 49.9893 3.62375 51.7271 2.53C53.8829 1.17062 57.7356 1.46229 58.974 4.86333C59.1014 5.20708 59.1218 5.35812 58.6988 5.32687C58.495 5.31298 58.2911 5.31761 58.0873 5.32224C57.9853 5.32455 57.8834 5.32687 57.7815 5.32687L57.7866 5.32166ZM102.41 12.0508C103.24 12.0196 103.918 11.655 104.565 10.9883C104.657 11.6237 104.992 11.9414 105.569 11.9414C105.666 11.9414 105.763 11.9383 105.86 11.9352C106.07 11.9285 106.281 11.9217 106.487 11.9466C106.915 11.9987 107.032 11.8373 107.027 11.3998C107.014 10.2206 107.015 9.04345 107.017 7.86577V7.86559V7.86542V7.86524V7.86507V7.8649V7.86472V7.86455V7.86437V7.8642V7.86402C107.018 7.19053 107.018 6.51685 107.017 5.84248C107.017 5.67145 107.033 5.48173 107.05 5.29055C107.092 4.8122 107.135 4.32467 106.92 4.09768C106.667 3.82956 106.227 3.87679 105.777 3.92493C105.546 3.94973 105.312 3.97477 105.1 3.95706C104.764 3.93102 104.601 4.03518 104.642 4.40498C104.643 4.42537 104.646 4.44717 104.649 4.46972L104.649 4.46988L104.649 4.47005L104.649 4.47025L104.649 4.47046L104.649 4.47069C104.664 4.59187 104.682 4.73427 104.545 4.7956C104.419 4.85037 104.344 4.7641 104.272 4.68025C104.248 4.65246 104.224 4.62493 104.198 4.60289C102.776 3.41539 100.6 3.68102 99.5607 5.2331C98.516 6.79039 98.4803 8.47789 99.2448 10.155C99.8563 11.4883 100.957 12.1029 102.41 12.0508ZM102.894 9.95706C101.925 9.95706 101.176 9.07164 101.181 7.93102V7.93623C101.186 6.85289 101.946 5.97789 102.894 5.97268C103.852 5.96748 104.652 6.87373 104.652 7.97268C104.652 9.09768 103.893 9.95706 102.894 9.95706ZM111.002 8.65041C111.063 8.65041 111.124 8.65215 111.185 8.65389C111.307 8.65736 111.43 8.66083 111.552 8.65041C111.934 8.60875 112.164 8.68166 112.266 9.15041C112.418 9.84833 113.035 10.1452 113.8 10.0098C114.35 9.91083 114.696 9.41604 114.671 8.765C114.646 8.09833 114.274 7.71812 113.54 7.61916C112.438 7.46638 112.438 7.46299 112.41 6.37226L112.408 6.29625C112.393 5.77021 112.485 5.54104 113.081 5.53062C114.065 5.50979 114.426 5.16083 114.452 4.46812C114.472 3.89521 114.258 3.49937 113.682 3.36396C113.142 3.23896 112.587 3.46812 112.439 3.99416C112.311 4.4525 112.057 4.48896 111.685 4.46812C111.236 4.44729 110.788 4.44208 110.339 4.46812C109.982 4.48896 109.937 4.33791 109.988 4.02541C110.212 2.61396 111.022 1.7025 112.403 1.39521C113.336 1.18687 114.268 1.20771 115.155 1.60354C116.057 2.00979 116.633 2.71291 116.771 3.71291C116.918 4.77541 116.546 5.62958 115.66 6.23375C115.633 6.25223 115.604 6.27026 115.575 6.28828C115.408 6.39206 115.242 6.49527 115.593 6.68166C116.806 7.32229 117.163 8.37958 116.908 9.67125C116.659 10.9577 115.813 11.6973 114.584 11.9212C113.132 12.1869 111.736 12.0827 110.614 10.9212C110.1 10.39 109.937 9.70771 109.84 8.99937C109.799 8.70771 109.942 8.63479 110.191 8.65041C110.368 8.65736 110.545 8.65504 110.721 8.65273C110.81 8.65157 110.898 8.65041 110.986 8.65041H111.002ZM60.0799 7.98308C60.085 10.4154 61.7311 12.0664 64.1467 12.056V12.0508C66.5726 12.0404 68.2441 10.3529 68.2441 7.92058C68.239 5.54558 66.542 3.8685 64.1314 3.86329C61.7617 3.85808 60.0799 5.57163 60.0799 7.98308ZM65.7708 7.85288C65.7691 7.90843 65.7673 7.96399 65.7673 8.01954L65.7724 8.01433C65.803 8.62892 65.6348 9.181 65.1762 9.58204C64.32 10.332 63.0612 9.98308 62.6841 8.89975C62.4905 8.36329 62.4701 7.806 62.6281 7.24871C62.8727 6.38933 63.4995 5.88933 64.264 5.95704C65.0386 6.02475 65.6705 6.67579 65.7673 7.51954C65.7775 7.63065 65.7741 7.74176 65.7708 7.85288ZM105.11 21.0045C104.947 21.0045 104.784 21.0062 104.621 21.008C104.295 21.0114 103.97 21.0149 103.648 21.0045C103.327 20.9941 103.25 21.1295 103.332 21.416C103.49 21.9889 103.852 22.3587 104.417 22.4732C104.983 22.5826 105.513 22.4941 105.895 21.9837C105.921 21.9484 105.94 21.9058 105.958 21.8639C105.983 21.8067 106.007 21.7511 106.048 21.718C106.277 21.5305 106.593 21.541 106.787 21.6712C106.96 21.7823 106.841 21.9454 106.738 22.086C106.71 22.1234 106.684 22.1592 106.665 22.192C106.17 23.0305 105.054 23.3951 104.02 23.0618C102.985 22.7337 102.374 21.7389 102.45 20.5305C102.537 19.192 103.459 18.2545 104.718 18.2337C105.921 18.2128 106.853 19.0566 107.001 20.2857C107.062 20.7701 107.001 21.093 106.39 21.0149C106.097 20.9789 105.802 20.9877 105.506 20.9966L105.506 20.9966C105.374 21.0005 105.242 21.0045 105.11 21.0045ZM104.692 20.3691C104.799 20.3691 104.906 20.3671 105.013 20.3651C105.252 20.3607 105.491 20.3563 105.727 20.3743C106.206 20.4107 106.237 20.1816 106.099 19.8118C105.88 19.2337 105.314 18.9264 104.545 18.9837C103.974 19.0253 103.474 19.4368 103.337 19.968C103.255 20.2701 103.342 20.3899 103.653 20.3743C103.884 20.3639 104.116 20.3674 104.346 20.3708C104.46 20.3726 104.574 20.3743 104.687 20.3743L104.692 20.3691ZM62.2986 21.0082C62.4491 21.0062 62.5997 21.0043 62.7502 21.0043V21.0147C62.9201 21.0147 63.09 21.0141 63.2598 21.0135C63.5996 21.0124 63.9393 21.0112 64.2791 21.0147C64.4931 21.0199 64.6001 20.9678 64.6307 20.7126C64.7581 19.6605 64.0039 18.5407 62.9948 18.3168C61.8584 18.0615 60.9054 18.473 60.3957 19.4365C59.8708 20.4261 60.0543 21.822 60.7983 22.5668C61.7564 23.5199 63.6064 23.322 64.2842 22.1918C64.3029 22.1605 64.3272 22.1261 64.3526 22.0902L64.3526 22.0901C64.4585 21.9402 64.5842 21.7623 64.4116 21.6657C64.2077 21.5511 63.8612 21.4782 63.6471 21.7803C63.6226 21.8128 63.604 21.849 63.5856 21.8847C63.5658 21.9233 63.5462 21.9614 63.5197 21.9938C63.1477 22.473 62.6381 22.572 62.0877 22.4782C61.5169 22.374 61.1449 22.0147 60.9665 21.4522C60.8748 21.1657 60.9054 20.9782 61.2825 20.999C61.6212 21.0171 61.9599 21.0126 62.2986 21.0082ZM63.4739 20.374C63.1069 20.3688 62.7451 20.3688 62.3782 20.3688H62.3833C62.254 20.3688 62.1247 20.3671 61.9956 20.3654C61.7379 20.3619 61.481 20.3584 61.2264 20.3688C60.9818 20.3793 60.9003 20.2959 60.941 20.0459C61.0379 19.447 61.6086 18.9834 62.3119 18.9574C63.0866 18.9313 63.637 19.322 63.7949 19.9678C63.8714 20.2855 63.7695 20.3845 63.4739 20.374ZM90.2956 20.7279V22.6654C90.2956 22.6809 90.296 22.6969 90.2966 22.7131L90.2975 22.7396C90.3035 22.9028 90.3102 23.0834 90.0765 23.0924C90.0419 23.0942 90.0049 23.0985 89.9671 23.103C89.7819 23.1246 89.5751 23.1488 89.5159 22.8893C89.4501 22.5962 89.3539 22.6533 89.1913 22.7498C89.1777 22.7579 89.1636 22.7663 89.149 22.7747C87.5538 23.7018 86.1218 22.8633 86.1116 21.0039C86.1098 20.7244 86.1106 20.4449 86.1114 20.1654V20.163C86.1129 19.6725 86.1144 19.1819 86.1014 18.6914C86.0912 18.3841 86.2033 18.3008 86.4887 18.3008C86.7588 18.3008 86.8964 18.3581 86.8862 18.681C86.8688 19.3061 86.8738 19.9312 86.8788 20.5563L86.8811 20.8685C86.8913 21.9258 87.3347 22.4831 88.1654 22.4883C88.9859 22.4883 89.4802 21.9102 89.4955 20.9102C89.5057 20.181 89.5159 19.4518 89.4955 18.7227C89.4853 18.3737 89.6331 18.306 89.9338 18.306C90.2396 18.306 90.3109 18.4466 90.3007 18.7279C90.2906 19.1723 90.2939 19.6168 90.2973 20.0612C90.299 20.2834 90.3007 20.5056 90.3007 20.7279H90.2956ZM69.6149 18.7383V20.6706H69.62V22.5404L69.6199 22.5875C69.6187 22.8739 69.6177 23.1081 70.043 23.1081C70.4604 23.1081 70.4475 22.8732 70.4347 22.6392C70.4325 22.5989 70.4303 22.5586 70.4303 22.5196C70.4303 22.301 70.4292 22.0819 70.4281 21.8624V21.8612V21.8601V21.8589V21.8578C70.4258 21.4145 70.4235 20.9696 70.4303 20.5248C70.4405 19.4467 70.8482 18.9883 71.7554 18.9883C72.6115 18.9936 73.0243 19.4831 73.0294 20.5144C73.0345 21.2175 73.0396 21.9258 73.0294 22.6342L73.0294 22.6371C73.0243 22.9064 73.0206 23.1029 73.3964 23.1029C73.7429 23.0977 73.7888 22.9519 73.7888 22.655C73.7837 22.2722 73.7837 21.8881 73.7837 21.5033V21.5016C73.7837 21.1174 73.7837 20.7326 73.7786 20.3477C73.7531 18.5456 72.3567 17.7019 70.8024 18.5613C70.772 18.5781 70.7437 18.5961 70.7172 18.613L70.7169 18.6132L70.7168 18.6132C70.5789 18.7011 70.4878 18.7591 70.3896 18.4623C70.3174 18.2453 70.093 18.2851 69.8992 18.3194C69.8605 18.3263 69.823 18.333 69.7882 18.3373C69.5957 18.3592 69.6043 18.5167 69.612 18.6592C69.6135 18.6865 69.6149 18.7132 69.6149 18.7383ZM113.634 23.1554C112.927 23.155 112.301 22.9775 111.919 22.3065C111.907 22.2852 111.893 22.2624 111.878 22.2387C111.772 22.065 111.632 21.8371 111.878 21.7179C112.087 21.619 112.398 21.5408 112.597 21.921C112.882 22.4679 113.509 22.6554 114.07 22.4419C114.33 22.3429 114.528 22.1867 114.554 21.8638C114.579 21.5356 114.416 21.3481 114.141 21.2544C113.924 21.1788 113.706 21.1112 113.488 21.0436C113.24 20.9668 112.991 20.8899 112.745 20.8013C112.179 20.5981 111.807 20.2179 111.827 19.5565C111.843 18.9888 112.261 18.5096 112.877 18.3325C113.866 18.046 114.783 18.369 115.14 19.1554C115.154 19.1864 115.173 19.2202 115.193 19.2556L115.193 19.2556C115.286 19.4228 115.4 19.6252 115.135 19.7283C114.926 19.8117 114.61 19.8794 114.457 19.52C114.182 18.8742 113.626 18.9419 113.096 19.02C112.842 19.0565 112.653 19.244 112.612 19.52C112.566 19.8065 112.729 19.9888 112.954 20.1294C113.19 20.2759 113.454 20.3425 113.718 20.409L113.718 20.4091C113.829 20.4371 113.94 20.4652 114.049 20.4992C115.033 20.8013 115.41 21.244 115.318 21.9731C115.227 22.7121 114.601 23.1547 113.634 23.1554ZM53.8556 21.0265C53.7085 21.4385 53.5565 21.8643 53.3986 22.3112V22.3008C53.2673 21.9559 53.144 21.6365 53.0264 21.332C52.8475 20.8685 52.682 20.4398 52.5221 20.0091C52.4215 19.7437 52.3287 19.4752 52.2359 19.2069L52.2359 19.2069L52.2359 19.2068L52.2358 19.2066L52.2357 19.2064C52.1592 18.9853 52.0828 18.7644 52.0023 18.5456C51.8615 18.1685 51.5356 18.2641 51.3024 18.3325L51.2684 18.3425C51.0537 18.4063 51.144 18.5618 51.2209 18.6943C51.2444 18.7348 51.2667 18.7731 51.2786 18.806C51.5036 19.4144 51.734 20.0206 51.9643 20.6267L51.9645 20.6272L51.9648 20.6278L51.9651 20.6287C52.2353 21.3397 52.5055 22.0505 52.7667 22.7643C52.883 23.083 53.0928 23.0846 53.3302 23.0864C53.3453 23.0866 53.3606 23.0867 53.3759 23.0869C53.3835 23.087 53.391 23.0871 53.3986 23.0872C53.6585 23.0977 53.8522 23.0768 53.9643 22.7643C54.4536 21.4206 54.9632 20.082 55.4932 18.7539C55.6563 18.3529 55.5034 18.3112 55.1619 18.306C54.8409 18.3008 54.7542 18.4727 54.6625 18.7331C54.4071 19.4819 54.1405 20.2284 53.8556 21.0265ZM79.2062 20.6503V19.5931C79.2062 19.5568 79.2073 19.5201 79.2084 19.4837C79.2163 19.2111 79.2238 18.9515 78.7832 18.9837C78.6126 18.9978 78.6089 18.8284 78.606 18.6919C78.6057 18.6776 78.6054 18.6637 78.6049 18.6503C78.6049 18.5253 78.6049 18.3378 78.7374 18.3483C79.2391 18.3803 79.225 18.0783 79.2108 17.7748C79.2088 17.7331 79.2069 17.6913 79.2062 17.6503L79.2056 17.6194C79.2002 17.3465 79.1957 17.1193 79.5936 17.1243C79.9962 17.1243 80.0369 17.3535 79.9911 17.6451C79.9044 18.2024 80.1185 18.3951 80.6587 18.3326C80.6878 18.3291 80.7193 18.3235 80.7519 18.3177C80.9596 18.281 81.2162 18.2356 81.2295 18.6451C81.2382 19.0929 80.9683 19.0479 80.7402 19.01C80.7029 19.0038 80.6668 18.9977 80.6332 18.9941C80.1338 18.942 79.9503 19.1087 79.986 19.6399C80.0318 20.3014 80.0165 20.9681 79.9962 21.6347C79.9758 22.1816 80.1796 22.4576 80.7351 22.4316C80.7491 22.431 80.7632 22.4302 80.7774 22.4293L80.7974 22.428C81.0105 22.4147 81.2341 22.4007 81.2295 22.7753C81.2252 23.1273 81.0223 23.1168 80.8279 23.1066C80.7893 23.1046 80.751 23.1026 80.7147 23.1035C79.5783 23.1191 79.2113 22.7493 79.2062 21.5931V20.6608V20.6503ZM96.3964 18.9559C96.725 18.5949 96.989 18.3629 97.3386 18.3111C97.3793 18.3052 97.4266 18.2884 97.4758 18.271C97.6419 18.212 97.8285 18.1458 97.8482 18.4674C97.8508 18.5121 97.858 18.5601 97.8652 18.609C97.9004 18.845 97.9389 19.1039 97.4915 19.1341C96.727 19.1862 96.4111 19.5664 96.3958 20.3424C96.3805 21.0924 96.3856 21.8424 96.3958 22.5924C96.3958 22.6106 96.3959 22.6286 96.396 22.6464C96.3979 22.9043 96.3994 23.1188 96.0085 23.1237C95.6059 23.1289 95.6007 22.9101 95.6007 22.6132C95.6041 21.7799 95.603 20.9466 95.6019 20.1132C95.6013 19.6966 95.6007 19.2799 95.6007 18.8632C95.6007 18.8268 95.5988 18.7896 95.5969 18.7525C95.5855 18.5354 95.5744 18.3237 95.9575 18.3059C96.3869 18.2905 96.4207 18.5206 96.3964 18.9559Z" fill="#69716F"/>
</g>
<defs>
<clipPath id="clip0_1989_6139">
<rect width="117" height="24" fill="white"/>
</clipPath>
</defs>
</svg>
