<svg width="26" height="27" viewBox="0 0 26 27" fill="none" xmlns="http://www.w3.org/2000/svg">
<g clip-path="url(#clip0_2194_79427)">
<mask id="mask0_2194_79427" style="mask-type:luminance" maskUnits="userSpaceOnUse" x="0" y="0" width="26" height="27">
<rect x="0.400391" y="0.800781" width="25.6" height="25.6" fill="white"/>
</mask>
<g mask="url(#mask0_2194_79427)">
<path fill-rule="evenodd" clip-rule="evenodd" d="M2.53516 13.6003C2.53516 19.4915 7.31062 24.2669 13.2018 24.2669C19.093 24.2669 23.8685 19.4915 23.8685 13.6003C23.8685 7.70906 19.093 2.93359 13.2018 2.93359C7.31062 2.93359 2.53516 7.70906 2.53516 13.6003ZM9.89836 14.8408L9.88449 14.8483V14.8493L7.22102 14.0173C6.64502 13.8413 6.64076 13.4445 7.34902 13.1608L17.7309 9.15013C18.3336 8.90266 18.6749 9.21413 18.4797 9.99066L16.7122 18.3341C16.5885 18.9272 16.2312 19.0691 15.7341 18.7949L13.0141 16.7811L11.7469 18.0056C11.7421 18.0102 11.7374 18.0147 11.7327 18.0192C11.6079 18.1392 11.5028 18.2402 11.3096 18.2659C11.1101 18.2936 10.9458 18.2339 10.8264 17.9021L9.89836 14.8408Z" fill="white"/>
</g>
</g>
<defs>
<clipPath id="clip0_2194_79427">
<rect width="25.6" height="25.6" fill="white" transform="translate(0.400391 0.800781)"/>
</clipPath>
</defs>
</svg>
