<svg width="26" height="26" viewBox="0 0 26 26" fill="none" xmlns="http://www.w3.org/2000/svg">
<g clip-path="url(#clip0_2194_79417)">
<mask id="mask0_2194_79417" style="mask-type:luminance" maskUnits="userSpaceOnUse" x="0" y="0" width="26" height="26">
<rect width="25.6" height="25.6" fill="#7BDDA9"/>
</mask>
<g mask="url(#mask0_2194_79417)">
<path d="M23.6403 6.03236C22.826 6.39256 21.9624 6.62913 21.0782 6.73422C22.0102 6.17682 22.7077 5.29957 23.0408 4.26596C22.1662 4.78649 21.2072 5.15129 20.2078 5.34862C18.8273 3.87163 16.6262 3.50765 14.8438 4.46164C13.0614 5.41563 12.1434 7.44905 12.6067 9.41689C9.01953 9.2371 5.67736 7.54275 3.41204 4.75556C3.01555 5.43657 2.80719 6.21073 2.80831 6.99876C2.80831 8.54542 3.59551 9.91182 4.79231 10.7118C4.08405 10.6895 3.39138 10.4983 2.77204 10.154V10.2094C2.77248 12.3332 4.26912 14.1626 6.35071 14.5838C5.69323 14.762 5.00383 14.7883 4.33471 14.6606C4.91831 16.4784 6.59332 17.7239 8.50217 17.7593C6.63331 19.227 4.25763 19.8917 1.89844 19.6068C3.93758 20.9182 6.31134 21.6144 8.73577 21.6121C16.9416 21.6121 21.4291 14.8142 21.4291 8.91876C21.4291 8.72676 21.4238 8.53262 21.4152 8.34276C22.2887 7.71147 23.0425 6.92944 23.6403 6.03236Z" fill="#7BDDA9"/>
</g>
</g>
<defs>
<clipPath id="clip0_2194_79417">
<rect width="25.6" height="25.6" fill="#7BDDA9"/>
</clipPath>
</defs>
</svg>
